<svg width="134" height="153" viewBox="0 0 134 153" fill="none" xmlns="http://www.w3.org/2000/svg">
<path d="M66.8781 0.722656L133.378 35.9544V116.988L66.8781 152.723L0.378052 116.988V35.9544L66.8781 0.722656Z" fill="#D9D9D9"/>
<path d="M24.288 84.0803C25.1934 92.397 28.4878 100.257 33.7608 106.666C39.0342 113.075 46.0511 117.746 53.9279 120.079C61.8052 122.413 70.1825 122.303 77.9983 119.763C85.8136 117.224 92.7106 112.371 97.8213 105.826C102.932 99.2813 106.028 91.3376 106.725 83.0001C107.421 74.6627 105.688 66.2986 101.74 58.9645C97.7917 51.63 91.8036 45.6513 84.5266 41.7912C77.249 37.9307 69.0128 36.3647 60.8609 37.2949" stroke="#000000" stroke-width="3.93279"/>
<path d="M42.5531 71.4837C42.759 70.1111 43.1434 68.9032 43.7062 67.8599C44.2689 66.8167 44.9759 65.9451 45.8269 65.2451C46.6779 64.5313 47.6525 63.9959 48.7506 63.6391C49.8625 63.2822 51.0567 63.1037 52.3332 63.1037C53.6098 63.1037 54.7834 63.289 55.8541 63.6596C56.9248 64.0165 57.8376 64.5313 58.5925 65.2039C59.3612 65.8627 59.9583 66.6589 60.3838 67.5923C60.8093 68.5257 61.0221 69.5552 61.0221 70.6807C61.0221 71.6279 60.9054 72.4652 60.6721 73.1927C60.4387 73.9202 60.1024 74.5585 59.6632 75.1075C59.2377 75.6566 58.7161 76.1233 58.0984 76.5076C57.4807 76.8782 56.7875 77.1871 56.0188 77.4342C57.8993 77.9558 59.3132 78.8068 60.2603 79.9873C61.2074 81.154 61.681 82.6365 61.681 84.4347C61.681 85.821 61.4202 87.0702 60.8986 88.182C60.377 89.2801 59.6632 90.2135 58.7572 90.9822C57.8513 91.7372 56.7944 92.3205 55.5864 92.7323C54.3922 93.1304 53.1157 93.3294 51.7567 93.3294C50.2056 93.3294 48.8742 93.1441 47.7623 92.7735C46.6505 92.3892 45.7034 91.8607 44.9209 91.1881C44.1385 90.5018 43.4865 89.6851 42.9649 88.7379C42.457 87.7771 42.0247 86.727 41.6678 85.5877L43.4179 84.8465C43.8709 84.6543 44.3101 84.5994 44.7356 84.6818C45.1612 84.7641 45.47 85.0043 45.6622 85.4024C45.8681 85.8142 46.1014 86.2809 46.3622 86.8025C46.6368 87.3104 47.0005 87.7977 47.4535 88.2644C47.9065 88.7173 48.4692 89.1017 49.1418 89.4174C49.8282 89.7331 50.6861 89.891 51.7156 89.891C52.7039 89.891 53.5686 89.7331 54.3099 89.4174C55.0511 89.088 55.6688 88.6693 56.1629 88.1614C56.6571 87.6398 57.0277 87.0633 57.2748 86.4319C57.5219 85.8005 57.6454 85.1759 57.6454 84.5582C57.6454 83.7895 57.5493 83.0826 57.3571 82.4375C57.165 81.7923 56.7944 81.2433 56.2453 80.7903C55.71 80.3236 54.9619 79.9598 54.001 79.699C53.0402 79.4382 51.791 79.3078 50.2537 79.3078V76.3841C51.5165 76.3704 52.5803 76.24 53.4451 75.9929C54.3236 75.7458 55.0305 75.4026 55.5658 74.9634C56.1012 74.5242 56.4855 74.0025 56.7189 73.3986C56.9659 72.7946 57.0895 72.122 57.0895 71.3808C57.0895 70.5709 56.9659 69.864 56.7189 69.26C56.4718 68.6561 56.1218 68.1551 55.6688 67.757C55.2295 67.3452 54.7011 67.0432 54.0834 66.851C53.4794 66.6452 52.8205 66.5422 52.1068 66.5422C51.393 66.5422 50.7341 66.6452 50.1301 66.851C49.5262 67.0569 48.9908 67.3452 48.5241 67.7158C48.0574 68.0864 47.6662 68.5257 47.3505 69.0336C47.0348 69.5414 46.8083 70.0905 46.6711 70.6807C46.4789 71.2023 46.2318 71.5524 45.9298 71.7308C45.6416 71.9093 45.2229 71.9504 44.6739 71.8544L42.5531 71.4837ZM93.3306 78.2166C93.3306 80.4265 92.9737 82.4375 92.2599 84.2494C91.5599 86.0613 90.5647 87.6192 89.2744 88.9232C87.9841 90.2135 86.4399 91.2156 84.6417 91.9293C82.8436 92.6431 80.8464 93 78.6501 93H67.5317V63.4332H78.6501C80.8464 63.4332 82.8436 63.79 84.6417 64.5038C86.4399 65.2176 87.9841 66.2265 89.2744 67.5305C90.5647 68.8208 91.5599 70.3788 92.2599 72.2044C92.9737 74.0163 93.3306 76.0203 93.3306 78.2166ZM88.842 78.2166C88.842 76.4596 88.6018 74.8879 88.1214 73.5015C87.641 72.1014 86.9547 70.921 86.0624 69.9601C85.1839 68.9855 84.1133 68.2443 82.8504 67.7364C81.6013 67.2285 80.2012 66.9746 78.6501 66.9746H71.9379V89.4586H78.6501C80.2012 89.4586 81.6013 89.2046 82.8504 88.6967C84.1133 88.1889 85.1839 87.4545 86.0624 86.4936C86.9547 85.5191 87.641 84.3386 88.1214 82.9522C88.6018 81.5658 88.842 79.9873 88.842 78.2166Z" fill="#000000"/>
</svg>
