<svg width="51" height="43" viewBox="0 0 51 43" fill="none" xmlns="http://www.w3.org/2000/svg">
<path d="M35.9555 26.7278H33.6901L32.8871 26.0809C35.6974 23.3494 37.3893 19.8032 37.3893 15.9455C37.3893 7.34365 29.0445 0.371094 18.7498 0.371094C8.4551 0.371094 0.110352 7.34365 0.110352 15.9455C0.110352 24.5474 8.4551 31.52 18.7498 31.52C23.3667 31.52 27.6107 30.1063 30.8798 27.7581L31.6541 28.429V30.3219L45.9921 42.2783L50.2648 38.7082L35.9555 26.7278ZM18.7498 26.7278C11.6095 26.7278 5.84557 21.9117 5.84557 15.9455C5.84557 9.97932 11.6095 5.16323 18.7498 5.16323C25.8902 5.16323 31.6541 9.97932 31.6541 15.9455C31.6541 21.9117 25.8902 26.7278 18.7498 26.7278Z" fill="white"/>
</svg>
